<?xml version="1.0" encoding="UTF-8"?>
<svg version="1.1" xmlns="http://www.w3.org/2000/svg" width="980" height="980">
<path d="M0 0 C323.4 0 646.8 0 980 0 C980 323.4 980 646.8 980 980 C656.6 980 333.2 980 0 980 C0 656.6 0 333.2 0 0 Z " fill="#000000" transform="translate(0,0)"/>
<path d="M0 0 C0 43.89 0 87.78 0 133 C-4.62 135.31 -9.24 137.62 -14 140 C-16.37985208 141.37308019 -18.74289492 142.7774249 -21.0625 144.25 C-22.08472656 144.89453125 -23.10695313 145.5390625 -24.16015625 146.203125 C-25.09730469 146.79609375 -26.03445313 147.3890625 -27 148 C-27.94746094 148.53109375 -28.89492188 149.0621875 -29.87109375 149.609375 C-30.57363281 150.06828125 -31.27617187 150.5271875 -32 151 C-32 151.66 -32 152.32 -32 153 C-30.50642791 153.77830977 -29.01283576 154.55658107 -27.51916504 155.33470154 C-26.21571605 156.02770517 -24.92113334 156.73765096 -23.6361084 157.46424866 C-19.98789443 159.51301407 -16.50344922 161.23009059 -12.51538086 162.51196289 C-7.42031573 164.38911248 -3.21886658 166.49840821 0 171 C2.84859694 179.82393899 2.37469357 189.43024825 2.10644531 198.60375977 C1.9981378 202.32364359 2.03474604 206.02586521 2.11080551 209.74595642 C2.47716429 231.17636691 2.47716429 231.17636691 -1.39440918 237.15234375 C-4.78331458 240.40592785 -8.64311778 241.97975168 -13.07885742 243.35848999 C-15.89778526 244.29978943 -18.29902887 245.79300012 -20.828125 247.3359375 C-22.63442887 248.35071862 -24.44172755 249.36373094 -26.25 250.375 C-35.78036181 255.73406102 -45.2599831 261.17361313 -54.71142578 266.67041016 C-56.99213831 267.99543261 -59.27494378 269.31676614 -61.55859375 270.63671875 C-68.2880708 274.52657338 -75.01494457 278.42034319 -81.72265625 282.34765625 C-92.55634603 288.68922035 -103.42390961 294.95793025 -114.36547852 301.11157227 C-122.17836495 305.51432998 -129.9262202 310.02252284 -137.66357422 314.55639648 C-145.45266725 319.11416524 -153.28246198 323.59770199 -161.125 328.0625 C-171.7028949 334.08603358 -182.21851285 340.20814893 -192.68359375 346.42578125 C-193.82417236 347.10181396 -193.82417236 347.10181396 -194.98779297 347.79150391 C-196.64463328 348.78657301 -198.28052326 349.81644101 -199.91015625 350.85546875 C-202 352 -202 352 -205 352 C-211.73828125 336.27734375 -211.73828125 336.27734375 -212.92211914 333.49926758 C-213.7797211 331.51075766 -214.67290316 329.53760156 -215.578125 327.5703125 C-233.60253354 282.31122073 -236.54528389 222.45936118 -220.68701172 176.06420898 C-219.85677458 173.56966207 -219.19629349 171.05092038 -218.5625 168.5 C-217.42258727 164.23566324 -215.95499054 160.38371601 -214.07421875 156.3984375 C-212.87696421 153.72529464 -211.91991059 151.00926151 -210.9375 148.25 C-192.0475657 98.67118783 -151.93862149 57.56806819 -106.77392578 31.05810547 C-105.23694626 30.14133294 -103.72346526 29.18538106 -102.21484375 28.22265625 C-78.36832646 13.29663291 -49.90623346 6.0865029 -22.5 1.1875 C-21.51616333 1.0016333 -21.51616333 1.0016333 -20.51245117 0.81201172 C-13.51829053 -0.35842206 -7.37215526 0 0 0 Z " fill="#FCFCFC" transform="translate(475,246)"/>
<path d="M0 0 C1.76703118 -0.00822322 3.53407337 -0.01410137 5.30111694 -0.01898193 C6.77714669 -0.02426722 6.77714669 -0.02426722 8.28299522 -0.02965927 C11.15929846 0.00173893 13.89080671 0.25440252 16.7265625 0.734375 C17.68667236 0.89405762 18.64678223 1.05374023 19.63598633 1.21826172 C20.62236084 1.39373535 21.60873535 1.56920898 22.625 1.75 C24.19640747 2.02287842 24.19640747 2.02287842 25.79956055 2.30126953 C38.10609563 4.48537093 50.06306309 7.29250042 62 11 C62.76546143 11.23702637 63.53092285 11.47405273 64.31958008 11.71826172 C69.73089343 13.45351034 74.84837484 15.6098783 80 18 C80.90588867 18.4125 81.81177734 18.825 82.74511719 19.25 C107.88648306 30.76231928 129.1724728 44.92836365 150 63 C150.92167969 63.79664063 151.84335937 64.59328125 152.79296875 65.4140625 C157.23795496 69.32780225 161.3466643 73.31633052 165.16015625 77.84765625 C167.34725678 80.40623882 169.64275938 82.85010709 171.9375 85.3125 C184.77639193 99.46226979 197.85128203 117.61595664 204.98046875 135.453125 C206.06193702 138.15472389 207.31002734 140.71715922 208.625 143.3125 C209.07101562 144.19550781 209.51703125 145.07851563 209.9765625 145.98828125 C210.31429687 146.65214844 210.65203125 147.31601562 211 148 C208 149 208 149 205.86206055 148.04711914 C205.04519775 147.54817139 204.22833496 147.04922363 203.38671875 146.53515625 C202.475271 145.98625732 201.56382324 145.4373584 200.62475586 144.87182617 C199.17081421 143.97620972 199.17081421 143.97620972 197.6875 143.0625 C195.68277923 141.8507555 193.67757136 140.63981649 191.671875 139.4296875 C190.69669922 138.83768555 189.72152344 138.24568359 188.71679688 137.63574219 C185.32226699 135.59194723 181.88967236 133.63227583 178.4375 131.6875 C174.18635377 129.27834983 170.0146411 126.78328001 165.875 124.1875 C160.59750482 120.90655119 155.21266163 117.89812175 149.75 114.9375 C141.72365635 110.56493385 133.80098905 106.03421675 125.9375 101.375 C124.9155957 100.7780835 123.89369141 100.18116699 122.84082031 99.56616211 C116.60782649 95.8426937 110.98721749 91.74955138 105.45043945 87.05126953 C94.31599427 77.73059518 81.13660299 70.12754804 68 64 C66.67935547 63.37158203 66.67935547 63.37158203 65.33203125 62.73046875 C58.94992356 59.75095162 52.69474377 57.43445228 46 55 C46 105.82 46 156.64 46 209 C47.65 209.66 49.3 210.32 51 211 C52.77810043 211.92871423 54.54036445 212.88813577 56.2890625 213.87109375 C57.80995483 214.72380859 57.80995483 214.72380859 59.36157227 215.59375 C60.43850342 216.2021875 61.51543457 216.810625 62.625 217.4375 C63.74511475 218.06785156 64.86522949 218.69820312 66.01928711 219.34765625 C77.66584336 225.91499452 89.22549572 232.62581504 100.76953125 239.37109375 C102.80462825 240.55999726 104.83978544 241.74879775 106.875 242.9375 C107.89360107 243.53248291 108.91220215 244.12746582 109.96166992 244.74047852 C117.25468342 248.99517143 124.57354092 253.20219898 131.90991211 257.3815918 C139.10026085 261.47940501 146.2708459 265.61090414 153.4375 269.75 C162.27884173 274.85603618 171.12643771 279.95013637 180 285 C179.95875 283.80375 179.9175 282.6075 179.875 281.375 C179.86904367 277.49742598 180.29508972 273.88365149 180.9375 270.0625 C182.69065571 258.80997576 182.68464434 247.36562307 183 236 C182.26982666 235.71946777 181.53965332 235.43893555 180.78735352 235.14990234 C176.32618298 233.30947901 172.16678899 230.94057694 167.9375 228.625 C166.96159912 228.09189209 165.98569824 227.55878418 164.98022461 227.00952148 C157.75287274 223.03146826 150.66400203 218.85948243 143.61523438 214.57495117 C136.33646726 210.163165 128.94451372 205.97019237 121.52490234 201.80078125 C85.62139121 181.62139121 85.62139121 181.62139121 83 179 C82.90653085 177.34261557 82.88255023 175.68125356 82.88647461 174.02124023 C82.88658791 172.42970375 82.88658791 172.42970375 82.88670349 170.80601501 C82.89186478 169.651866 82.89702606 168.49771698 82.90234375 167.30859375 C82.9037587 166.13361832 82.90517365 164.95864288 82.90663147 163.74806213 C82.91225008 159.97784936 82.92480574 156.20769496 82.9375 152.4375 C82.9425126 149.88867273 82.94707592 147.33984453 82.95117188 144.79101562 C82.96222556 138.52732367 82.97898179 132.26366601 83 126 C83.99 126 84.98 126 86 126 C86 126.66 86 127.32 86 128 C87.2375 128.3403125 87.2375 128.3403125 88.5 128.6875 C91.23701962 129.71388236 93.08249436 130.59581677 95.46875 132.1484375 C100.87746111 135.58837281 106.44018614 138.74967983 112 141.9375 C114.32973097 143.27681951 116.65924284 144.61650885 118.98828125 145.95703125 C119.57611893 146.29526917 120.1639566 146.63350708 120.76960754 146.98199463 C126.59193851 150.33511335 132.389822 153.72951095 138.1875 157.125 C146.02640324 161.71117409 153.8996076 166.2302127 161.8125 170.6875 C176.34842178 178.875627 190.76643018 187.23011546 205.04980469 195.8515625 C210.23836516 198.97337047 215.45484531 201.98518179 220.80859375 204.81640625 C221.53175781 205.20699219 222.25492188 205.59757813 223 206 C223.89847656 206.31839844 224.79695312 206.63679687 225.72265625 206.96484375 C228.39481978 209.35283208 228.42595745 209.96028882 228.80078125 213.41015625 C228.90352985 215.60537108 228.96351157 217.80268482 229 220 C229.01544861 220.71484558 229.03089722 221.42969116 229.04681396 222.16619873 C229.15352359 227.33630039 229.18576088 232.50441402 229.18530273 237.67553711 C229.18747048 240.40039144 229.20562736 243.12482729 229.22460938 245.84960938 C229.31578419 274.30628279 225.13434666 301.38381554 215 328 C214.51816043 329.31460253 214.0378035 330.62974905 213.55859375 331.9453125 C211.04149059 338.81787046 208.49361138 345.55025592 205 352 C201.13710162 351.41983412 198.41631631 350.29161661 195.0859375 348.26953125 C194.15910156 347.71330078 193.23226562 347.15707031 192.27734375 346.58398438 C191.31957031 345.99939453 190.36179687 345.41480469 189.375 344.8125 C182.92040724 340.90858424 176.44377277 337.11223134 169.8046875 333.5300293 C164.7563057 330.77600695 159.78876795 327.88165761 154.8125 325 C153.68972656 324.35135986 152.56695313 323.70271973 151.41015625 323.03442383 C142.75484342 318.03139108 134.1269917 312.98173965 125.49951172 307.9309082 C118.79731838 304.01859908 112.04107823 300.21905864 105.24121094 296.47973633 C99.88126319 293.52098145 94.62260545 290.41862831 89.38696289 287.24609375 C83.66663066 283.7826441 77.86903656 280.46342148 72.05224609 277.16455078 C60.76552444 270.75988004 49.49721943 264.32721131 38.32421875 257.72583008 C32.96191383 254.55909958 27.57896319 251.42930657 22.1875 248.3125 C21.39085937 247.85174072 20.59421875 247.39098145 19.7734375 246.91625977 C16.85362814 245.22771361 13.93365562 243.53945057 11.01318359 241.85205078 C9.29956278 240.8612433 7.5872273 239.8682137 5.875 238.875 C4.94429688 238.33617187 4.01359375 237.79734375 3.0546875 237.2421875 C1 236 1 236 0 235 C-0.0980132 231.97859937 -0.12991161 228.98004574 -0.12025452 225.95823669 C-0.12110894 224.99774746 -0.12196337 224.03725824 -0.12284368 223.04766327 C-0.12450141 219.80316001 -0.11897234 216.55870754 -0.11352539 213.31420898 C-0.11324356 210.99882 -0.11340118 208.68343092 -0.1139679 206.36804199 C-0.11425602 200.06044337 -0.10835696 193.75286358 -0.10139394 187.44526935 C-0.09516279 180.86154954 -0.09455679 174.27782935 -0.09336853 167.69410706 C-0.09077542 156.6366442 -0.08435322 145.57918798 -0.07543945 134.52172852 C-0.06626611 123.13045283 -0.0591849 111.73917902 -0.05493164 100.34790039 C-0.05466892 99.64621915 -0.05440619 98.94453792 -0.05413551 98.22159361 C-0.05283051 94.70160751 -0.05156679 91.1816214 -0.05032361 87.66163528 C-0.03995005 58.44108567 -0.0222568 29.22054293 0 0 Z " fill="#FCFCFC" transform="translate(505,246)"/>
<path d="M0 0 C0.94637329 0.648479 0.94637329 0.648479 1.91186523 1.31005859 C2.49701904 1.62507324 3.08217285 1.94008789 3.68505859 2.26464844 C5.74063437 3.40335067 7.79588581 4.54257813 9.84936523 5.68505859 C11.01254272 6.3318457 11.01254272 6.3318457 12.19921875 6.99169922 C18.60297299 10.56210804 24.98132516 14.17638371 31.34936523 17.81005859 C32.25485107 18.32616699 33.16033691 18.84227539 34.09326172 19.37402344 C34.93961182 19.85822754 35.78596191 20.34243164 36.65795898 20.84130859 C37.40746826 21.26992188 38.15697754 21.69853516 38.92919922 22.14013672 C40.62456259 23.14052845 42.27396401 24.21812445 43.91186523 25.31005859 C43.91186523 25.97005859 43.91186523 26.63005859 43.91186523 27.31005859 C43.10519409 27.74705078 43.10519409 27.74705078 42.28222656 28.19287109 C32.8478875 33.31416813 23.49339923 38.46941019 14.40014648 44.17724609 C10.05953471 46.8671665 5.60492659 49.35700482 1.16186523 51.87255859 C-8.08685104 57.11239648 -17.21228553 62.5411431 -26.2980957 68.05834961 C-32.80283165 71.99427873 -39.39075909 75.71313775 -46.08813477 79.31005859 C-49.44543954 81.1376699 -52.79810408 82.97370793 -56.15063477 84.81005859 C-56.97112305 85.25736328 -57.79161133 85.70466797 -58.63696289 86.16552734 C-63.66633336 88.92318688 -68.61043192 91.79217987 -73.51806641 94.76074219 C-78.07763389 97.50938997 -82.67746699 100.18914909 -87.27563477 102.87255859 C-88.30430664 103.47318115 -89.33297852 104.07380371 -90.39282227 104.69262695 C-98.69324833 109.52590641 -107.0413793 114.27097754 -115.42480469 118.95874023 C-120.21798507 121.64738568 -124.91835744 124.40590283 -129.51196289 127.42504883 C-131.08813477 128.31005859 -131.08813477 128.31005859 -133.08813477 128.31005859 C-129.21140708 133.17966079 -125.22150717 137.08524459 -120.15063477 140.68505859 C-119.50892334 141.1476709 -118.86721191 141.6102832 -118.20605469 142.08691406 C-113.55248841 145.39141561 -108.78218349 148.47899289 -103.90063477 151.43505859 C-102.96586304 152.00232666 -102.96586304 152.00232666 -102.01220703 152.58105469 C-97.79065297 155.16735995 -97.79065297 155.16735995 -93.08813477 156.31005859 C-90.18973731 154.927954 -90.18973731 154.927954 -87.17016602 152.84912109 C-86.00420702 152.09758792 -84.8370155 151.34796404 -83.66870117 150.60009766 C-83.07365784 150.21583618 -82.4786145 149.83157471 -81.86553955 149.43566895 C-76.95450445 146.32556595 -71.83270798 143.54851619 -66.77563477 140.68505859 C-64.30854427 139.2830697 -61.8426821 137.87893144 -59.37719727 136.47412109 C-58.45533379 135.94902954 -58.45533379 135.94902954 -57.5148468 135.41333008 C-51.53600787 132.00343884 -45.59028726 128.53771175 -39.65063477 125.06005859 C-31.46774426 120.27030329 -23.25607543 115.53589518 -15.015625 110.84594727 C-8.38748649 107.06762733 -1.79673282 103.22787123 4.78686523 99.37255859 C13.72884879 94.13759362 22.72386547 89.0057809 31.75463867 83.92578125 C38.06143414 80.37236615 44.31975648 76.74749673 50.54663086 73.05615234 C57.13164535 69.15954435 63.7768156 65.37045473 70.43188477 61.5949707 C71.25930176 61.12454346 72.08671875 60.65411621 72.93920898 60.16943359 C73.75502441 59.70988281 74.57083984 59.25033203 75.41137695 58.77685547 C77.1658086 57.74769853 78.88975394 56.66562619 80.58813477 55.54638672 C81.45937988 54.97855469 82.330625 54.41072266 83.22827148 53.82568359 C84.00759033 53.29749023 84.78690918 52.76929688 85.58984375 52.22509766 C87.91186523 51.31005859 87.91186523 51.31005859 90.36791992 51.96020508 C93.05028871 53.38350806 95.68792783 54.8403976 98.29858398 56.39208984 C99.32016602 56.99472656 100.34174805 57.59736328 101.39428711 58.21826172 C102.98080078 59.16088867 102.98080078 59.16088867 104.59936523 60.12255859 C111.91525446 64.46849651 119.2354769 68.63047632 126.91186523 72.31005859 C126.91186523 72.97005859 126.91186523 73.63005859 126.91186523 74.31005859 C127.72010742 74.53693359 128.52834961 74.76380859 129.36108398 74.99755859 C133.80402705 76.63983458 137.66100946 78.89722112 141.72436523 81.31005859 C142.56330322 81.80207764 143.40224121 82.29409668 144.26660156 82.80102539 C146.81811886 84.29884852 149.3652334 85.80394807 151.91186523 87.31005859 C153.30478713 88.12959148 154.6979965 88.94863605 156.09155273 89.76708984 C158.8075263 91.36283584 161.52215388 92.96084004 164.23608398 94.56005859 C169.95431743 97.92624493 175.68230735 101.27569295 181.41186523 104.62255859 C182.41499756 105.20948486 183.41812988 105.79641113 184.45166016 106.40112305 C190.23326 109.77601208 196.04308943 113.0890092 201.91186523 116.31005859 C199.58801037 126.85069779 188.87483255 136.25486111 181.91186523 144.31005859 C181.2944043 145.04095703 180.67694336 145.77185547 180.04077148 146.52490234 C160.93963949 168.92407151 160.93963949 168.92407151 148.91186523 174.31005859 C148.91186523 174.97005859 148.91186523 175.63005859 148.91186523 176.31005859 C146.88452148 177.86865234 146.88452148 177.86865234 143.97436523 179.74755859 C142.87737305 180.45783203 141.78038086 181.16810547 140.65014648 181.89990234 C140.0476709 182.28645996 139.44519531 182.67301758 138.82446289 183.07128906 C136.83299064 184.36114484 134.86194297 185.67849466 132.89233398 187.00146484 C123.55564459 193.22810159 114.07705218 198.56102798 103.91186523 203.31005859 C102.6530957 203.90560547 102.6530957 203.90560547 101.36889648 204.51318359 C96.05512927 206.95228986 90.59276764 209.0042867 85.12280273 211.06396484 C83.02841186 211.87675157 80.95837114 212.7562689 78.92358398 213.70849609 C73.59407391 216.01094439 67.9346946 217.36133459 62.33544922 218.84448242 C60.37571373 219.36555284 58.42021189 219.90070398 56.46459961 220.43701172 C48.01965766 222.71557302 39.61483734 224.34292085 30.91186523 225.31005859 C29.92283203 225.4201123 28.93379883 225.53016602 27.91479492 225.64355469 C18.29786311 226.5360882 8.64892104 226.49618057 -1.00097656 226.49536133 C-3.91233536 226.49756746 -6.82332602 226.51584443 -9.73461914 226.53466797 C-11.60896682 226.53759947 -13.48331628 226.53958589 -15.35766602 226.54052734 C-16.21616653 226.54771286 -17.07466705 226.55489838 -17.95918274 226.56230164 C-23.32970283 226.54211034 -27.92663076 225.80987805 -33.08813477 224.31005859 C-29.37226361 219.87999493 -24.55744204 217.69358601 -19.52563477 215.06005859 C-10.80360366 210.40412859 -2.25765838 205.51448111 6.22436523 200.43505859 C17.18050168 193.8839344 28.24671952 187.56763269 39.41186523 181.38037109 C42.68851937 179.5626082 45.94310539 177.72063951 49.16186523 175.80224609 C55.25074292 172.17452127 61.06667746 169.3564403 67.86108398 167.28662109 C90.59257363 160.01021596 112.22038116 146.08894979 129.91186523 130.31005859 C130.24186523 129.65005859 130.57186523 128.99005859 130.91186523 128.31005859 C130.32880615 128.18493896 129.74574707 128.05981934 129.14501953 127.9309082 C126.91484232 127.31088627 125.19592881 126.50488343 123.18139648 125.37646484 C122.46878662 124.97935303 121.75617676 124.58224121 121.02197266 124.1730957 C120.26376221 123.74391846 119.50555176 123.31474121 118.72436523 122.87255859 C117.93715088 122.43242432 117.14993652 121.99229004 116.33886719 121.53881836 C112.23413611 119.23187525 108.16245373 116.8776185 104.12280273 114.45849609 C103.36249756 114.004021 102.60219238 113.5495459 101.81884766 113.08129883 C100.36941244 112.21029844 98.92404337 111.33248538 97.48339844 110.44702148 C96.49472778 109.85135376 96.49472778 109.85135376 95.48608398 109.24365234 C94.62889771 108.71856079 94.62889771 108.71856079 93.75439453 108.18286133 C91.4289817 107.08131755 89.47748539 106.56440249 86.91186523 106.31005859 C84.73138834 107.02406821 84.73138834 107.02406821 82.67358398 108.34521484 C81.86614746 108.81757568 81.05871094 109.28993652 80.22680664 109.77661133 C79.35975098 110.30327393 78.49269531 110.82993652 77.59936523 111.37255859 C76.68074707 111.91404541 75.76212891 112.45553223 74.81567383 113.01342773 C72.84965868 114.17320785 70.88719021 115.33901737 68.92797852 116.51025391 C63.98574248 119.45943345 59.00937901 122.3498337 54.03686523 125.24755859 C53.03929199 125.83126221 52.04171875 126.41496582 51.01391602 127.01635742 C43.082999 131.65154915 35.09485755 136.17942966 27.08886719 140.68334961 C19.24721121 145.10188256 11.48075041 149.63855285 3.73852539 154.22851562 C-3.81164617 158.69887917 -11.40851524 163.06698114 -19.08813477 167.31005859 C-27.59722831 172.01783887 -36.01902238 176.83575402 -44.33813477 181.87255859 C-56.17057732 189.03349442 -68.18486768 195.87973647 -80.23120117 202.67333984 C-81.92211351 203.64205257 -83.60182449 204.63159245 -85.25366211 205.66552734 C-89.05681127 208.03924212 -91.61159158 208.95458706 -96.08813477 208.31005859 C-99.32250977 207.13037109 -99.32250977 207.13037109 -102.83813477 205.43505859 C-103.4764624 205.12769775 -104.11479004 204.82033691 -104.77246094 204.50366211 C-113.05928459 200.44544007 -121.08321069 195.89240336 -129.08813477 191.31005859 C-130.19801758 190.68228516 -131.30790039 190.05451172 -132.45141602 189.40771484 C-137.52468564 186.47282478 -137.52468564 186.47282478 -139.08813477 185.31005859 C-139.08813477 184.65005859 -139.08813477 183.99005859 -139.08813477 183.31005859 C-139.83192383 183.03935547 -140.57571289 182.76865234 -141.34204102 182.48974609 C-145.85985556 180.54894952 -149.31374166 177.42064128 -153.08813477 174.31005859 C-154.09875977 173.48634766 -155.10938477 172.66263672 -156.15063477 171.81396484 C-171.03258845 159.4899843 -184.63893224 145.88629924 -196.08813477 130.31005859 C-196.91079784 129.25184117 -197.73628207 128.19581036 -198.56469727 127.14208984 C-199.31493164 126.16626953 -200.06516602 125.19044922 -200.83813477 124.18505859 C-201.49297852 123.33685547 -202.14782227 122.48865234 -202.82250977 121.61474609 C-204.08813477 119.31005859 -204.08813477 119.31005859 -203.87231445 117.30249023 C-202.48436578 113.77601169 -198.79712534 112.5494589 -195.58813477 110.87255859 C-194.90493164 110.50324219 -194.22172852 110.13392578 -193.51782227 109.75341797 C-192.10628154 108.99081591 -190.69229987 108.23271755 -189.27612305 107.47875977 C-181.26405254 103.19915906 -173.48362466 98.57870433 -165.72485352 93.85888672 C-160.53221225 90.71980951 -155.27483617 87.75064335 -149.93676758 84.86645508 C-144.87516769 82.10096834 -139.89168678 79.20033768 -134.90063477 76.31005859 C-133.2186499 75.33818604 -133.2186499 75.33818604 -131.50268555 74.34667969 C-122.79820765 69.31447519 -114.11765748 64.24151679 -105.43823242 59.16625977 C-99.288809 55.57645064 -93.11194269 52.0434387 -86.89477539 48.57250977 C-80.90027529 45.22122317 -74.95998122 41.77867359 -69.02148438 38.3293457 C-64.30650652 35.59132195 -59.57962708 32.87689904 -54.83813477 30.18505859 C-50.30065296 27.5989021 -45.80592628 24.95178081 -41.33813477 22.24755859 C-32.97204831 17.18429749 -24.48833784 12.32401728 -16.01098633 7.45043945 C-14.93042969 6.82919189 -13.84987305 6.20794434 -12.73657227 5.56787109 C-11.76896973 5.01244629 -10.80136719 4.45702148 -9.80444336 3.88476562 C-7.05764531 2.34495335 -7.05764531 2.34495335 -4.48510742 0.48144531 C-2.08813477 -0.68994141 -2.08813477 -0.68994141 0 0 Z " fill="#FCFCFC" transform="translate(491.088134765625,507.68994140625)"/>
<path d="M0 0 C2.52954102 1.16748047 2.52954102 1.16748047 5.00390625 2.6171875 C5.90947266 3.14183594 6.81503906 3.66648437 7.74804688 4.20703125 C8.67681641 4.75746094 9.60558594 5.30789063 10.5625 5.875 C11.49513672 6.41769531 12.42777344 6.96039063 13.38867188 7.51953125 C16.77906916 9.49625611 20.16241256 11.47727716 23.49194336 13.55517578 C26.32980575 15.26885642 26.32980575 15.26885642 31 17 C31 20.96 31 24.92 31 29 C29.288125 29.825 27.57625 30.65 25.8125 31.5 C20.14967435 34.32810123 14.81994804 37.51448033 9.4609375 40.875 C5.82689738 43.13247822 2.11174723 45.23069017 -1.625 47.3125 C-8.47613999 51.13073085 -15.27398373 55.03380509 -22.05517578 58.97485352 C-26.2744622 61.42583226 -30.50286026 63.85807631 -34.75024414 66.26000977 C-40.40518472 69.45950524 -45.90328862 72.82584586 -51.359375 76.3515625 C-54.88488857 78.55240085 -58.51996581 80.50925625 -62.18359375 82.46875 C-65.15979555 84.08687913 -68.08033544 85.78210705 -71 87.5 C-75.67779191 90.24880555 -80.40709203 92.87281521 -85.18359375 95.4453125 C-89.37052655 97.75654586 -93.46716885 100.21694669 -97.56640625 102.6796875 C-100 104 -100 104 -102 104 C-102.48539869 102.16830682 -102.96297186 100.33453941 -103.4375 98.5 C-103.83775391 96.96859375 -103.83775391 96.96859375 -104.24609375 95.40625 C-106.12772486 86.90478717 -106.12206366 78.67796694 -106.0625 70 C-106.05798828 68.74832031 -106.05347656 67.49664062 -106.04882812 66.20703125 C-106.03711415 63.13797059 -106.02071073 60.06901093 -106 57 C-105.17177734 56.52965332 -104.34355469 56.05930664 -103.49023438 55.57470703 C-95.62747002 51.10535976 -87.8086768 46.56315001 -80 42 C-73.68108214 38.30751539 -67.36209357 34.61766105 -61 31 C-55.88109672 28.08730685 -50.78568791 25.13637257 -45.69873047 22.16821289 C-43.64945449 20.97266626 -41.59899662 19.77914321 -39.54736328 18.58764648 C-34.10949189 15.42440416 -28.70126464 12.22136332 -23.328125 8.94921875 C-22.24708496 8.29840332 -21.16604492 7.64758789 -20.05224609 6.97705078 C-17.97398565 5.72472879 -15.90358046 4.45925331 -13.84228516 3.17919922 C-12.90175293 2.61604004 -11.9612207 2.05288086 -10.9921875 1.47265625 C-10.17089355 0.97000244 -9.34959961 0.46734863 -8.50341797 -0.05053711 C-5.22192771 -1.29509685 -3.36262523 -0.91678115 0 0 Z " fill="#030303" transform="translate(398,426)"/>
<path d="M0 0 C0 16.83 0 33.66 0 51 C-7.26 54.96 -14.52 58.92 -22 63 C-25.93414405 65.24909801 -29.85222316 67.50403335 -33.75 69.8125 C-35.7509055 70.98895602 -37.75222352 72.16471065 -39.75390625 73.33984375 C-40.76727051 73.93522949 -41.78063477 74.53061523 -42.82470703 75.14404297 C-48.42761549 78.41893995 -54.05996804 81.64266893 -59.6875 84.875 C-67.31661484 89.26125324 -74.88004627 93.71025776 -82.33984375 98.37890625 C-85.88955598 100.54209359 -89.54100192 102.48798082 -93.20703125 104.4453125 C-96.27295219 106.15193703 -99.22175542 107.99997821 -102.1875 109.875 C-109.5282389 114.45632861 -117.21326917 118.24157793 -125 122 C-124.45826485 116.79666736 -123.21362568 112.41024337 -121.0625 107.625 C-120.75675049 106.93873535 -120.45100098 106.2524707 -120.13598633 105.54541016 C-110.34615254 84.18445267 -95.80319672 63.42840423 -79 47 C-78.34 47 -77.68 47 -77 47 C-76.67 46.01 -76.34 45.02 -76 44 C-74.328125 42.31640625 -74.328125 42.31640625 -72.25 40.5625 C-71.53070313 39.9540625 -70.81140625 39.345625 -70.0703125 38.71875 C-69.38710938 38.1515625 -68.70390625 37.584375 -68 37 C-67.05125 36.195625 -66.1025 35.39125 -65.125 34.5625 C-63 33 -63 33 -61 33 C-61 32.34 -61 31.68 -61 31 C-58.67628323 29.31029605 -56.35405425 27.73400361 -53.9375 26.1875 C-52.61250946 25.32801154 -51.28828751 24.46733705 -49.96484375 23.60546875 C-49.30057373 23.17500244 -48.63630371 22.74453613 -47.9519043 22.30102539 C-46.09766156 21.06509549 -44.30715418 19.76988563 -42.515625 18.4453125 C-38.81252081 15.77490054 -34.89795972 13.70913124 -30.8125 11.6875 C-30.11447266 11.32849609 -29.41644531 10.96949219 -28.69726562 10.59960938 C-25.15295376 8.8291396 -23.0302724 8 -19 8 C-19 7.34 -19 6.68 -19 6 C-16.39802798 4.99394407 -13.79370638 3.99497475 -11.1875 3 C-10.44951172 2.71382813 -9.71152344 2.42765625 -8.95117188 2.1328125 C-7.88286133 1.72675781 -7.88286133 1.72675781 -6.79296875 1.3125 C-6.1383667 1.06113281 -5.48376465 0.80976563 -4.80932617 0.55078125 C-3 0 -3 0 0 0 Z " fill="#040404" transform="translate(429,301)"/>
<path d="M0 0 C4.17950077 3.45889719 5.32762134 6.98286401 7 12 C3.70319035 11.34215037 1.15882078 10.10579427 -1.75 8.4375 C-2.54921875 7.98246094 -3.3484375 7.52742188 -4.171875 7.05859375 C-5.07679688 6.53458984 -5.07679688 6.53458984 -6 6 C-4 4 -2 2 0 0 Z " fill="#DCDCDC" transform="translate(709,383)"/>
<path d="M0 0 C-2.36292656 2.52588702 -3.66462511 3.88820837 -7 5 C-3.37 5.66 0.26 6.32 4 7 C4 7.33 4 7.66 4 8 C-2.06892629 8.25287193 -7.16200408 7.69832609 -13 6 C-9.41603189 2.00249711 -5.50726745 -1.83575582 0 0 Z " fill="#C9C9C9" transform="translate(471,726)"/>
<path d="M0 0 C0.66 0.33 1.32 0.66 2 1 C1.34 1.639375 0.68 2.27875 0 2.9375 C-3.2302506 6.15849486 -6.21987881 9.586669 -9.23046875 13.01171875 C-10.44659636 14.37818443 -11.70651734 15.70651734 -13 17 C-13 16.34 -13 15.68 -13 15 C-13.66 14.67 -14.32 14.34 -15 14 C-13.625 12.5 -13.625 12.5 -12 11 C-11.34 11 -10.68 11 -10 11 C-9.67 10.01 -9.34 9.02 -9 8 C-7.1875 6.2109375 -7.1875 6.2109375 -5 4.375 C-3.9171875 3.45847656 -3.9171875 3.45847656 -2.8125 2.5234375 C-2.214375 2.02070313 -1.61625 1.51796875 -1 1 C-0.67 0.67 -0.34 0.34 0 0 Z " fill="#2B2B2B" transform="translate(362,337)"/>
<path d="M0 0 C0.66 0.33 1.32 0.66 2 1 C1 4 1 4 -1.9375 5.5625 C-3.4534375 6.2740625 -3.4534375 6.2740625 -5 7 C-5.66 7.66 -6.32 8.32 -7 9 C-9.625 8.625 -9.625 8.625 -12 8 C-8.20182235 4.77730382 -4.42608146 2.25479622 0 0 Z " fill="#E0E0E0" transform="translate(468,623)"/>
<path d="M0 0 C0 0.66 0 1.32 0 2 C-1.6796875 3.5078125 -1.6796875 3.5078125 -3.875 5.125 C-4.59429687 5.66382813 -5.31359375 6.20265625 -6.0546875 6.7578125 C-8 8 -8 8 -10 8 C-10.66 8.66 -11.32 9.32 -12 10 C-12.99 9.34 -13.98 8.68 -15 8 C-12.8782637 6.66121428 -10.75294812 5.32884524 -8.625 4 C-8.02171875 3.6184375 -7.4184375 3.236875 -6.796875 2.84375 C-2.2265625 0 -2.2265625 0 0 0 Z " fill="#292929" transform="translate(465,384)"/>
<path d="M0 0 C0.66 0.33 1.32 0.66 2 1 C0.36272637 2.80100099 -0.9043936 3.95500875 -3.125 5 C-5.3530435 5.91202978 -5.3530435 5.91202978 -6 9 C-8.375 9.625 -8.375 9.625 -11 10 C-11.66 9.34 -12.32 8.68 -13 8 C-10.880788 6.63594382 -8.75551882 5.28368225 -6.625 3.9375 C-6.02171875 3.54755859 -5.4184375 3.15761719 -4.796875 2.75585938 C-3.23507443 1.77539568 -1.62007786 0.88083925 0 0 Z " fill="#212121" transform="translate(401,611)"/>
<path d="M0 0 C0.33 0.99 0.66 1.98 1 3 C0.44570313 3.48210937 -0.10859375 3.96421875 -0.6796875 4.4609375 C-1.40414063 5.09257812 -2.12859375 5.72421875 -2.875 6.375 C-3.59429687 7.00148438 -4.31359375 7.62796875 -5.0546875 8.2734375 C-6.4076598 9.47426834 -7.7208345 10.7208345 -9 12 C-11.125 12.625 -11.125 12.625 -13 13 C-9.0580583 8.11950075 -4.88049925 3.9419417 0 0 Z " fill="#D9D9D9" transform="translate(327,307)"/>
<path d="M0 0 C0.99 0.495 0.99 0.495 2 1 C1.01 1.495 1.01 1.495 0 2 C0 1.34 0 0.68 0 0 Z M-2 2 C-1.34 2.33 -0.68 2.66 0 3 C-2.625 7.875 -2.625 7.875 -6 9 C-7.34090759 9.65129797 -8.67592331 10.31513275 -10 11 C-10.66 10.34 -11.32 9.68 -12 9 C-8.7 6.69 -5.4 4.38 -2 2 Z " fill="#252525" transform="translate(640,682)"/>
<path d="M0 0 C7.48291572 6.15034169 7.48291572 6.15034169 10 10 C8.35 9.67 6.7 9.34 5 9 C4.67 8.01 4.34 7.02 4 6 C1.98491642 5.26676204 1.98491642 5.26676204 0 5 C0 3.35 0 1.7 0 0 Z " fill="#1F1F1F" transform="translate(310,656)"/>
<path d="M0 0 C0.66 0.33 1.32 0.66 2 1 C1.25 2.9375 1.25 2.9375 0 5 C-1.9375 5.625 -1.9375 5.625 -4 6 C-4.99 6.66 -5.98 7.32 -7 8 C-7.99 7.34 -8.98 6.68 -10 6 C-8.3811004 4.96951963 -6.75467511 3.95085322 -5.125 2.9375 C-4.22007812 2.36902344 -3.31515625 1.80054688 -2.3828125 1.21484375 C-1.20332031 0.61349609 -1.20332031 0.61349609 0 0 Z " fill="#222222" transform="translate(397,525)"/>
<path d="M0 0 C0.66 0.33 1.32 0.66 2 1 C1.34 2.65 0.68 4.3 0 6 C-1.98 6 -3.96 6 -6 6 C-6.33 5.34 -6.66 4.68 -7 4 C-1.7265625 0.77734375 -1.7265625 0.77734375 0 0 Z " fill="#E4E4E4" transform="translate(425,353)"/>
<path d="M0 0 C0.66 0.33 1.32 0.66 2 1 C-0.05233685 3.2477975 -1.00667261 4.0022242 -4 5 C-4.66 5.66 -5.32 6.32 -6 7 C-8.125 7.625 -8.125 7.625 -10 8 C-10.33 7.34 -10.66 6.68 -11 6 C-9.21385682 4.96953278 -7.42089982 3.95086764 -5.625 2.9375 C-4.62726563 2.36902344 -3.62953125 1.80054688 -2.6015625 1.21484375 C-1.74304688 0.81394531 -0.88453125 0.41304688 0 0 Z " fill="#282828" transform="translate(422,511)"/>
<path d="M0 0 C-0.33 0.99 -0.66 1.98 -1 3 C-1.99 3.33 -2.98 3.66 -4 4 C-4.7115625 4.804375 -4.7115625 4.804375 -5.4375 5.625 C-5.953125 6.07875 -6.46875 6.5325 -7 7 C-9.1875 6.6875 -9.1875 6.6875 -11 6 C-3.28571429 0 -3.28571429 0 0 0 Z " fill="#252525" transform="translate(424,703)"/>
<path d="M0 0 C1.98 0.66 3.96 1.32 6 2 C3.14693203 4.32472205 0.45925163 5.7508258 -3 7 C-2.67 6.01 -2.34 5.02 -2 4 C-1.34 4 -0.68 4 0 4 C0 2.68 0 1.36 0 0 Z " fill="#131313" transform="translate(371,570)"/>
<path d="M0 0 C0.66 0.33 1.32 0.66 2 1 C1.401875 1.556875 0.80375 2.11375 0.1875 2.6875 C-1.9863446 4.98556429 -3.46898083 7.24416549 -5 10 C-5.33 9.34 -5.66 8.68 -6 8 C-6.66 7.67 -7.32 7.34 -8 7 C-5.36 4.69 -2.72 2.38 0 0 Z " fill="#D7D7D7" transform="translate(338,297)"/>
<path d="M0 0 C1.32 0.66 2.64 1.32 4 2 C-2.75 6 -2.75 6 -5 6 C-3.63016497 2.83884224 -3.0109362 2.0072908 0 0 Z " fill="#121212" transform="translate(454,628)"/>
<path d="M0 0 C0.66 0.33 1.32 0.66 2 1 C-0.31881505 3.67901932 -2.31814468 4.66204403 -5.6875 5.6875 C-6.89986328 6.06455078 -6.89986328 6.06455078 -8.13671875 6.44921875 C-9.05904297 6.72185547 -9.05904297 6.72185547 -10 7 C-6.98387254 3.79017628 -3.91966781 1.99546725 0 0 Z " fill="#333333" transform="translate(309,576)"/>
<path d="M0 0 C0 0.66 0 1.32 0 2 C-0.66 2.66 -1.32 3.32 -2 4 C-2 4.33 -2 4.66 -2 5 C-4.31 5.33 -6.62 5.66 -9 6 C-9 5.34 -9 4.68 -9 4 C-2.25 0 -2.25 0 0 0 Z " fill="#282828" transform="translate(402,312)"/>
<path d="M0 0 C0.66 0.66 1.32 1.32 2 2 C0.37660195 3.70884005 -1.29319053 5.37446717 -3 7 C-3.66 7 -4.32 7 -5 7 C-5.33 5.68 -5.66 4.36 -6 3 C-4.02 2.01 -2.04 1.02 0 0 Z " fill="#E9E9E9" transform="translate(493,711)"/>
<path d="M0 0 C0.66 0.33 1.32 0.66 2 1 C0.35 2.65 -1.3 4.3 -3 6 C-4.32 5.34 -5.64 4.68 -7 4 C-1.7265625 0.77734375 -1.7265625 0.77734375 0 0 Z " fill="#353535" transform="translate(460,681)"/>
<path d="M0 0 C0.66 0.33 1.32 0.66 2 1 C2 2.66666667 2 4.33333333 2 6 C-0.31 5.34 -2.62 4.68 -5 4 C-3.35 2.68 -1.7 1.36 0 0 Z " fill="#1A1A1A" transform="translate(545,632)"/>
<path d="M0 0 C1.65 0.33 3.3 0.66 5 1 C2.14693203 3.32472205 -0.54074837 4.7508258 -4 6 C-3.67 5.01 -3.34 4.02 -3 3 C-2.34 3 -1.68 3 -1 3 C-0.67 2.01 -0.34 1.02 0 0 Z " fill="#EAEAEA" transform="translate(492,555)"/>
<path d="M0 0 C0.66 0.33 1.32 0.66 2 1 C0.29374499 3.78388975 -0.47626739 4.85384206 -3.6875 5.75 C-4.8321875 5.87375 -4.8321875 5.87375 -6 6 C-6 5.01 -6 4.02 -6 3 C-4.03533587 1.93224776 -2.03144641 0.93446535 0 0 Z " fill="#1D1D1D" transform="translate(462,488)"/>
<path d="M0 0 C4.455 1.98 4.455 1.98 9 4 C6 6 6 6 3 6 C3 5.34 3 4.68 3 4 C2.34 4 1.68 4 1 4 C1 3.34 1 2.68 1 2 C0.34 1.67 -0.32 1.34 -1 1 C-0.67 0.67 -0.34 0.34 0 0 Z " fill="#E4E4E4" transform="translate(692,432)"/>
<path d="M0 0 C0.66 0.33 1.32 0.66 2 1 C2 1.66 2 2.32 2 3 C1.01 3.495 1.01 3.495 0 4 C-1.0409066 5.64142963 -2.04504326 7.30712215 -3 9 C-3.66 8.67 -4.32 8.34 -5 8 C-3.62845496 5.04590299 -2.01136276 2.55991624 0 0 Z " fill="#DCDCDC" transform="translate(299,336)"/>
<path d="M0 0 C1.65 1.65 3.3 3.3 5 5 C4.67 5.66 4.34 6.32 4 7 C3.01 7 2.02 7 1 7 C-0.0625 4.625 -0.0625 4.625 -1 2 C-0.67 1.34 -0.34 0.68 0 0 Z " fill="#DDDDDD" transform="translate(686,344)"/>
<path d="M0 0 C0.66 0.33 1.32 0.66 2 1 C0.9024777 3.99324263 0.32317108 4.84610901 -2.625 6.25 C-3.40875 6.4975 -4.1925 6.745 -5 7 C-3.47793991 4.37098712 -2.15634036 2.15634036 0 0 Z " fill="#252525" transform="translate(341,358)"/>
<path d="M0 0 C0.66 0.33 1.32 0.66 2 1 C0.375 3.0625 0.375 3.0625 -2 5 C-5.25 4.75 -5.25 4.75 -8 4 C-6.66666667 3.33333333 -5.33333333 2.66666667 -4 2 C-3.29875 1.608125 -2.5975 1.21625 -1.875 0.8125 C-1.25625 0.544375 -0.6375 0.27625 0 0 Z " fill="#2F2F2F" transform="translate(576,718)"/>
<path d="M0 0 C0.66 0.33 1.32 0.66 2 1 C1.21625 1.61875 0.4325 2.2375 -0.375 2.875 C-2.96837647 4.89858661 -2.96837647 4.89858661 -5 7 C-5.99 6.34 -6.98 5.68 -8 5 C-6.71475739 4.13619741 -5.42157581 3.28419631 -4.125 2.4375 C-3.04605469 1.72400391 -3.04605469 1.72400391 -1.9453125 0.99609375 C-1.30335938 0.66738281 -0.66140625 0.33867188 0 0 Z " fill="#313131" transform="translate(498,659)"/>
<path d="M0 0 C0.99 0.33 1.98 0.66 3 1 C1.68 2.32 0.36 3.64 -1 5 C-2.32 4.34 -3.64 3.68 -5 3 C-2.6875 1.4375 -2.6875 1.4375 0 0 Z " fill="#ECECEC" transform="translate(458,384)"/>
<path d="M0 0 C0.66 0.33 1.32 0.66 2 1 C1.01 2.485 1.01 2.485 0 4 C0 4.66 0 5.32 0 6 C-0.99 6.33 -1.98 6.66 -3 7 C-3.66 6.34 -4.32 5.68 -5 5 C-3.35 3.35 -1.7 1.7 0 0 Z " fill="#2B2B2B" transform="translate(653,671)"/>
<path d="M0 0 C2.97 0.495 2.97 0.495 6 1 C5.67 2.65 5.34 4.3 5 6 C3.31237149 4.3545622 1.6459651 2.68711423 0 1 C0 0.67 0 0.34 0 0 Z " fill="#E1E1E1" transform="translate(304,648)"/>
<path d="M0 0 C0.66 0.33 1.32 0.66 2 1 C0.68 2.65 -0.64 4.3 -2 6 C-3.32 5.34 -4.64 4.68 -6 4 C-4.02 2.68 -2.04 1.36 0 0 Z " fill="#D4D4D4" transform="translate(518,594)"/>
<path d="M0 0 C0.66 0.33 1.32 0.66 2 1 C1.34 2.32 0.68 3.64 0 5 C-1.65 4.67 -3.3 4.34 -5 4 C-3.36587557 2.29159719 -2.13093906 1.06546953 0 0 Z " fill="#1E1E1E" transform="translate(285,590)"/>
<path d="M0 0 C1.32 0.33 2.64 0.66 4 1 C1.82575883 3.50037734 0.26954202 4.43628586 -3 5 C-3 4.34 -3 3.68 -3 3 C-2.34 3 -1.68 3 -1 3 C-0.67 2.01 -0.34 1.02 0 0 Z " fill="#1B1B1B" transform="translate(428,539)"/>
<path d="M0 0 C0.66 0.33 1.32 0.66 2 1 C1.34 2.32 0.68 3.64 0 5 C-1.65 4.67 -3.3 4.34 -5 4 C-3.35 2.68 -1.7 1.36 0 0 Z " fill="#DEDEDE" transform="translate(463,522)"/>
<path d="M0 0 C0.66 0.33 1.32 0.66 2 1 C0.68 2.65 -0.64 4.3 -2 6 C-3.32 5.34 -4.64 4.68 -6 4 C-4.02 2.68 -2.04 1.36 0 0 Z " fill="#2C2C2C" transform="translate(326,463)"/>
<path d="M0 0 C0.99 0.33 1.98 0.66 3 1 C2.67 1.66 2.34 2.32 2 3 C1.01 3 0.02 3 -1 3 C-1.99 4.485 -1.99 4.485 -3 6 C-3.66 5.01 -4.32 4.02 -5 3 C-2.6875 1.4375 -2.6875 1.4375 0 0 Z " fill="#262626" transform="translate(356,446)"/>
<path d="M0 0 C1.32 1.65 2.64 3.3 4 5 C2.35 5.66 0.7 6.32 -1 7 C-0.67 4.69 -0.34 2.38 0 0 Z " fill="#2A2A2A" transform="translate(305,416)"/>
<path d="M0 0 C0.66 0.33 1.32 0.66 2 1 C1.67 1.99 1.34 2.98 1 4 C-1.64 4.33 -4.28 4.66 -7 5 C-2.25 1.125 -2.25 1.125 0 0 Z " fill="#C7C7C7" transform="translate(338,403)"/>
<path d="M0 0 C0.99 0.33 1.98 0.66 3 1 C5.14255793 0.61067144 5.14255793 0.61067144 7 0 C6.67 0.99 6.34 1.98 6 3 C4.125 3.875 4.125 3.875 2 4 C0.25 2.5625 0.25 2.5625 -1 1 C-0.67 0.67 -0.34 0.34 0 0 Z " fill="#EBEBEB" transform="translate(365,698)"/>
<path d="M0 0 C0.94875 0.350625 1.8975 0.70125 2.875 1.0625 C1.555 2.0525 0.235 3.0425 -1.125 4.0625 C-2.445 2.7425 -3.765 1.4225 -5.125 0.0625 C-3.125 -0.9375 -3.125 -0.9375 0 0 Z " fill="#161616" transform="translate(420.125,602.9375)"/>
<path d="M0 0 C0 0.66 0 1.32 0 2 C-4.15267176 5.11450382 -4.15267176 5.11450382 -7.3125 4.6875 C-7.869375 4.460625 -8.42625 4.23375 -9 4 C-2.25 0 -2.25 0 0 0 Z " fill="#CDCDCD" transform="translate(512,599)"/>
<path d="M0 0 C0.66 0.66 1.32 1.32 2 2 C1.01 2.99 0.02 3.98 -1 5 C-2.32 4.34 -3.64 3.68 -5 3 C-3.35 2.01 -1.7 1.02 0 0 Z " fill="#E0E0E0" transform="translate(415,550)"/>
<path d="M0 0 C1.134375 0.020625 2.26875 0.04125 3.4375 0.0625 C1.38516315 2.3102975 0.43082739 3.0647242 -2.5625 4.0625 C-3.2225 3.0725 -3.8825 2.0825 -4.5625 1.0625 C-3.5625 0.0625 -3.5625 0.0625 0 0 Z " fill="#EAEAEA" transform="translate(508.5625,546.9375)"/>
<path d="M0 0 C0.66 0.33 1.32 0.66 2 1 C0.35 2.65 -1.3 4.3 -3 6 C-4.32 5.34 -5.64 4.68 -7 4 C-1.7265625 0.77734375 -1.7265625 0.77734375 0 0 Z " fill="#323232" transform="translate(366,543)"/>
<path d="M0 0 C2 1 2 1 4 4 C3.01 4.495 3.01 4.495 2 5 C-0.03144641 4.06553465 -2.03533587 3.06775224 -4 2 C-2.125 0.9375 -2.125 0.9375 0 0 Z " fill="#2B2B2B" transform="translate(636,500)"/>
<path d="M0 0 C1.32 0.33 2.64 0.66 4 1 C1.94766315 3.2477975 0.99332739 4.0022242 -2 5 C-2.33 4.34 -2.66 3.68 -3 3 C-2.34 3 -1.68 3 -1 3 C-0.67 2.01 -0.34 1.02 0 0 Z " fill="#181818" transform="translate(372,483)"/>
<path d="M0 0 C0.66 0.33 1.32 0.66 2 1 C-0.25 3.0625 -0.25 3.0625 -3 5 C-5.3125 4.75 -5.3125 4.75 -7 4 C-1.7265625 0.77734375 -1.7265625 0.77734375 0 0 Z " fill="#D8D8D8" transform="translate(411,464)"/>
<path d="M0 0 C2.91517292 1.07401108 4.77810176 1.77810176 7 4 C4 5 4 5 1.8125 4.0625 C1.214375 3.711875 0.61625 3.36125 0 3 C0 2.01 0 1.02 0 0 Z " fill="#E8E8E8" transform="translate(707,441)"/>
<path d="M0 0 C1.98 0.99 3.96 1.98 6 3 C4.02 3.99 4.02 3.99 2 5 C1.34 4.34 0.68 3.68 0 3 C0 2.01 0 1.02 0 0 Z " fill="#EBEBEB" transform="translate(458,408)"/>
<path d="M0 0 C3.465 1.485 3.465 1.485 7 3 C6.34 3.66 5.68 4.32 5 5 C2.875 4.625 2.875 4.625 1 4 C1 3.34 1 2.68 1 2 C0.34 1.67 -0.32 1.34 -1 1 C-0.67 0.67 -0.34 0.34 0 0 Z " fill="#E8E8E8" transform="translate(444,400)"/>
<path d="M0 0 C1.9375 0.75 1.9375 0.75 4 2 C4.75 4.125 4.75 4.125 5 6 C3.02 4.68 1.04 3.36 -1 2 C-0.67 1.34 -0.34 0.68 0 0 Z " fill="#CFCFCF" transform="translate(605,326)"/>
</svg>
